<svg id="Capa_1" enable-background="new 0 0 512 512" height="512" viewBox="0 0 512 512" width="512" xmlns="http://www.w3.org/2000/svg"><g><path d="m404.311 248.626h-48.51v-56.459h48.51c4.235 0 7.667 3.433 7.667 7.667v41.124c0 4.235-3.433 7.668-7.667 7.668z" fill="#756e78"/><path d="m321.386 7.5h-33.681c-7.802 0-14.127 6.325-14.127 14.127v64.603h61.935v-64.602c.001-7.803-6.324-14.128-14.127-14.128z" fill="#f1f4f6"/><path d="m321.386 7.5h-15.924c7.802 0 14.127 6.325 14.127 14.127v44.603h15.924v-44.602c.001-7.803-6.324-14.128-14.127-14.128z" fill="#dfeaef"/><path d="m273.578 40.486h61.935v25.745h-61.935z" fill="#d0e2e7"/><path d="m319.589 40.486h15.924v25.745h-15.924z" fill="#b4d0d5"/><path d="m348.501 165.091h-87.911v-96.214c0-1.461 1.185-2.646 2.646-2.646h82.619c1.461 0 2.646 1.185 2.646 2.646z" fill="#756e78"/><path d="m345.855 66.231h-15.924c1.461 0 2.646 1.185 2.646 2.646v76.214h15.924v-76.214c0-1.462-1.185-2.646-2.646-2.646z" fill="#665e66"/><path d="m367.282 504.5h-225.249c-10.228 0-18.519-8.291-18.519-18.519v-322.371c0-10.228 8.291-18.519 18.519-18.519h225.248c10.228 0 18.519 8.291 18.519 18.519v322.371c.001 10.228-8.29 18.519-18.518 18.519z" fill="#dd636e"/><path d="m367.282 145.091h-19.524c10.228 0 18.519 8.291 18.519 18.519v322.371c0 10.228-8.291 18.519-18.519 18.519h19.524c10.228 0 18.519-8.291 18.519-18.519v-322.371c0-10.228-8.291-18.519-18.519-18.519z" fill="#da4a54"/><path d="m143.514 306.827h-36.511c-3.856 0-6.981-3.126-6.981-6.981v-107.822c0-3.856 3.126-6.981 6.981-6.981h36.511z" fill="#d0e2e7"/><path d="m158.884 265.527 18.36-18.36c.789-.789 1.232-1.858 1.232-2.974v-60.918c0-1.115-.443-2.185-1.232-2.974l-35.211-35.211c-10.228 0-18.519 8.291-18.519 18.519v322.371l33.03-35.975c.712-.776 1.108-1.791 1.108-2.844v-178.66c0-1.115.443-2.185 1.232-2.974z" fill="#756e78"/><path d="m339.427 474.305h-17.517c-2.748 0-4.976-2.228-4.976-4.976v-82.256c0-2.748 2.228-4.976 4.976-4.976h17.517c2.748 0 4.976 2.228 4.976 4.976v82.256c-.001 2.749-2.228 4.976-4.976 4.976z" fill="#f1f4f6"/><g><path d="m404.311 184.667h-11.011v-21.057c0-14.347-11.672-26.02-26.019-26.02h-11.281v-68.714c0-5.595-4.551-10.146-10.146-10.146h-2.842v-37.103c.001-11.925-9.701-21.627-21.626-21.627h-33.681c-11.926 0-21.628 9.702-21.628 21.627v37.103h-2.842c-5.595 0-10.146 4.551-10.146 10.146v22.7c0 4.142 3.357 7.5 7.5 7.5s7.5-3.358 7.5-7.5v-17.846h72.91v63.86h-72.91v-16.027c0-4.142-3.357-7.5-7.5-7.5s-7.5 3.358-7.5 7.5v16.027h-111.055c-14.348 0-26.02 11.672-26.02 26.02v13.933h-9.012c-7.984 0-14.48 6.496-14.48 14.481v53.785c0 4.142 3.357 7.5 7.5 7.5s7.5-3.358 7.5-7.5v-53.266h8.492v106.785h-8.492v-23.531c0-4.143-3.357-7.5-7.5-7.5s-7.5 3.357-7.5 7.5v24.05c0 7.985 6.496 14.481 14.48 14.481h9.012v171.653c0 14.286 11.623 26.02 26.02 26.02h225.248c14.347 0 26.019-11.672 26.019-26.02v-31.944c0-4.143-3.357-7.5-7.5-7.5s-7.5 3.357-7.5 7.5v31.944c0 6.076-4.943 11.02-11.019 11.02h-225.248c-5.188 0-9.539-3.608-10.703-8.444l30.738-33.479c1.988-2.165 3.083-4.977 3.083-7.916v-177.297l17.397-17.396c2.21-2.211 3.427-5.15 3.427-8.275v-60.918c0-3.124-1.217-6.063-3.428-8.277l-22.408-22.408h207.141c6.075 0 11.019 4.943 11.019 11.02v260.439c0 4.143 3.357 7.5 7.5 7.5s7.5-3.357 7.5-7.5v-167.924h11.011c8.363 0 15.167-6.804 15.167-15.167v-41.125c0-8.363-6.803-15.167-15.167-15.167zm-116.605-169.667h33.681c3.654 0 6.627 2.973 6.627 6.627v11.359h-46.936v-11.359c0-3.654 2.974-6.627 6.628-6.627zm-6.628 43.73v-10.744h46.936v10.744zm-110.102 184.099-17.399 17.398c-2.208 2.211-3.425 5.149-3.425 8.273v177.378l-19.138 20.844c0-17.664 0-285.221 0-303.112 0-5.126 3.524-9.434 8.273-10.659l31.689 31.688zm233.502-1.87c0 .092-.075.167-.167.167h-11.011v-41.459h11.011c.092 0 .167.075.167.167z"/><path d="m313.093 125.456c4.143 0 7.5-3.358 7.5-7.5s-3.357-7.5-7.5-7.5h-17.094c-4.143 0-7.5 3.358-7.5 7.5s3.357 7.5 7.5 7.5z"/><path d="m140.539 187.303 8.414 8.414c2.93 2.929 7.678 2.929 10.607 0s2.929-7.678 0-10.606l-8.414-8.414c-2.93-2.929-7.678-2.929-10.607 0-2.929 2.928-2.929 7.677 0 10.606z"/><path d="m151.146 200.718c-2.93-2.929-7.678-2.929-10.607 0s-2.929 7.678 0 10.606l8.414 8.414c2.93 2.929 7.678 2.929 10.607 0s2.929-7.678 0-10.606z"/><path d="m151.146 224.741c-2.93-2.929-7.678-2.929-10.607 0s-2.929 7.678 0 10.606l8.414 8.414c2.93 2.929 7.678 2.929 10.607 0s2.929-7.678 0-10.606z"/><path d="m339.427 374.598h-17.517c-6.879 0-12.476 5.597-12.476 12.476v82.256c0 6.879 5.597 12.476 12.476 12.476h17.517c6.879 0 12.476-5.597 12.476-12.476v-82.256c-.001-6.879-5.598-12.476-12.476-12.476zm-14.993 45.394h12.468v16.42h-12.468zm12.468-30.394v15.394h-12.468v-15.394zm-12.468 77.207v-15.394h12.468v15.394z"/></g></g></svg>